<svg width="16" height="16" viewBox="0 0 16 16" fill="none" xmlns="http://www.w3.org/2000/svg">
<rect width="16" height="16" fill="#C4C4C4"/>
<path d="M7.08631 9.88568C7.09618 9.29881 7.16276 8.83524 7.28607 8.49496C7.40937 8.15467 7.66091 7.7774 8.04069 7.36315L9.00986 6.36449C9.42417 5.89599 9.63132 5.39296 9.63132 4.85541C9.63132 4.33759 9.49568 3.9332 9.22441 3.64223C8.95314 3.34633 8.55857 3.19839 8.04069 3.19839C7.53761 3.19839 7.13317 3.33154 6.82737 3.59785C6.52158 3.86416 6.36868 4.2217 6.36868 4.67048H5C5.00986 3.87155 5.29346 3.22798 5.8508 2.73974C6.41307 2.24658 7.14303 2 8.04069 2C8.97287 2 9.6979 2.25151 10.2158 2.75454C10.7386 3.25263 11 3.93813 11 4.81103C11 5.67406 10.6005 6.52477 9.80148 7.36315L8.99507 8.16207C8.63502 8.56153 8.45499 9.13607 8.45499 9.88568H7.08631ZM7.02713 12.2307C7.02713 12.0087 7.09371 11.8238 7.22688 11.6759C7.36498 11.523 7.5672 11.4465 7.83354 11.4465C8.09988 11.4465 8.3021 11.523 8.4402 11.6759C8.5783 11.8238 8.64735 12.0087 8.64735 12.2307C8.64735 12.4526 8.5783 12.6375 8.4402 12.7855C8.3021 12.9285 8.09988 13 7.83354 13C7.5672 13 7.36498 12.9285 7.22688 12.7855C7.09371 12.6375 7.02713 12.4526 7.02713 12.2307Z" fill="black"/>
</svg>
