<svg width="36" height="36" viewBox="0 0 36 36" fill="none" xmlns="http://www.w3.org/2000/svg">
<circle cx="18" cy="18" r="18" fill="#BECDD0"/>
<path d="M16.2979 23.5215C16.2979 22.1794 16.4644 21.1097 16.7974 20.3125C17.1304 19.5153 17.7863 18.6424 18.7651 17.6938C19.7541 16.7352 20.3797 16.054 20.6421 15.6504C21.0457 15.0348 21.2476 14.3688 21.2476 13.6523C21.2476 12.7038 21.0104 11.9823 20.5361 11.4878C20.0719 10.9832 19.3857 10.731 18.4775 10.731C17.6097 10.731 16.9084 10.9782 16.3735 11.4727C15.8488 11.957 15.5864 12.618 15.5864 13.4556H11.9082C11.9284 11.6694 12.5339 10.2567 13.7246 9.21729C14.9255 8.1779 16.5098 7.6582 18.4775 7.6582C20.5059 7.6582 22.0851 8.17285 23.2153 9.20215C24.3556 10.2314 24.9258 11.6694 24.9258 13.5161C24.9258 15.161 24.1589 16.7806 22.625 18.375L20.7632 20.2065C20.0972 20.9634 19.7541 22.0684 19.7339 23.5215H16.2979ZM16.0405 28.229C16.0405 27.6336 16.2272 27.1543 16.6006 26.791C16.974 26.4176 17.4785 26.231 18.1143 26.231C18.7601 26.231 19.2697 26.4227 19.6431 26.8062C20.0164 27.1795 20.2031 27.6538 20.2031 28.229C20.2031 28.784 20.0215 29.2482 19.6582 29.6216C19.2949 29.995 18.7803 30.1816 18.1143 30.1816C17.4482 30.1816 16.9336 29.995 16.5703 29.6216C16.2171 29.2482 16.0405 28.784 16.0405 28.229Z" fill="black"/>
</svg>
