<svg width="16" height="19" viewBox="0 0 16 19" fill="none" xmlns="http://www.w3.org/2000/svg">
<path d="M1.40027 17.5996L0.937929 17.4092C0.856601 17.6067 0.909724 17.8341 1.07015 17.9751C1.23058 18.1162 1.46288 18.1397 1.64834 18.0337L1.40027 17.5996ZM7.99995 1.5718L8.46229 1.38143L7.99995 0.258606L7.53761 1.38143L7.99995 1.5718ZM14.5996 17.5996L14.3516 18.0337C14.537 18.1397 14.7693 18.1162 14.9297 17.9751C15.0902 17.8341 15.1433 17.6067 15.062 17.4092L14.5996 17.5996ZM7.99995 13.8284L8.24802 13.3942L7.99995 13.2525L7.75188 13.3942L7.99995 13.8284ZM7.50005 13.9998C7.50005 14.276 7.72391 14.4998 8.00005 14.4998C8.27619 14.4998 8.50005 14.276 8.50005 13.9998L7.50005 13.9998ZM8.50005 10.9998C8.50005 10.7237 8.27619 10.4998 8.00005 10.4998C7.72391 10.4998 7.50005 10.7237 7.50005 10.9998L8.50005 10.9998ZM1.86261 17.79L8.46229 1.76218L7.53761 1.38143L0.937929 17.4092L1.86261 17.79ZM7.53761 1.76218L14.1373 17.79L15.062 17.4092L8.46229 1.38143L7.53761 1.76218ZM14.8477 17.1655L8.24802 13.3942L7.75188 14.2625L14.3516 18.0337L14.8477 17.1655ZM7.75188 13.3942L1.1522 17.1655L1.64834 18.0337L8.24802 14.2625L7.75188 13.3942ZM8.50005 13.9998L8.50005 10.9998L7.50005 10.9998L7.50005 13.9998L8.50005 13.9998Z" fill="#0097A7"/>
</svg>
